<svg xmlns="http://www.w3.org/2000/svg" width="106" height="96" viewBox="0 0 106 96" fill="none">
<path d="M28.5659 1.18073C30.2517 2.87535 30.439 5.69971 28.7532 7.58262L15.2663 22.6459C14.5171 23.3991 13.3932 23.9639 12.082 23.9639C10.958 24.1522 9.64683 23.5873 8.89756 22.6459L1.40488 15.1143C-0.468293 13.4196 -0.468293 10.5953 1.40488 8.90066C3.09073 7.01775 5.90049 7.01775 7.58634 8.90066L11.8946 13.0431L22.1971 1.36902C23.8829 -0.325594 26.6927 -0.513885 28.5659 1.18073ZM42.0527 11.9133C42.0527 8.71237 44.6751 5.888 48.0468 5.888H100.006C103.19 5.888 106 8.71237 106 11.9133C106 15.3025 103.19 17.9386 100.006 17.9386H48.0468C44.6751 17.9386 42.0527 15.3025 42.0527 11.9133Z" fill="#008080"/>
<path d="M36 81C32.625 81 30 83.8125 30 87C30 90.375 32.625 93 36 93H100C103.188 93 106 90.375 106 87C106 83.8125 103.188 81 100 81H36Z" fill="#EBB21E"/>
<path d="M9 78C3.9375 78 0 82.125 0 87C0 92.0625 3.9375 96 9 96C13.875 96 18 92.0625 18 87C18 82.125 13.875 78 9 78Z" fill="#EBB21E"/>
<path d="M36 45C32.625 45 30 47.8125 30 51C30 54.375 32.625 57 36 57H100C103.188 57 106 54.375 106 51C106 47.8125 103.188 45 100 45H36Z" fill="#EBB21E"/>
<path d="M9 42C3.9375 42 0 46.125 0 51C0 56.0625 3.9375 60 9 60C13.875 60 18 56.0625 18 51C18 46.125 13.875 42 9 42Z" fill="#EBB21E"/>
</svg>
