<svg xmlns="http://www.w3.org/2000/svg" width="100" height="100" viewBox="0 0 100 100" fill="none">
<path d="M99.7849 0.174999C98.0599 0.0549992 96.3749 0 94.7249 0C58.8899 0 38.4849 27.32 31.0649 49.305L50.7599 68.995C73.3799 60.9 99.9999 41.25 99.9999 5.8C99.9999 3.965 99.9299 2.095 99.7849 0.174999ZM52.7949 59.25L40.7849 47.24C45.8749 35.325 60.3349 9.965 91.6149 8.405C90.5649 32.465 74.7749 49.785 52.7949 59.25ZM58.5849 41.465C56.9549 39.84 56.9549 37.2 58.5849 35.575C60.2099 33.945 62.8499 33.945 64.4749 35.575C66.1049 37.205 66.1049 39.845 64.4749 41.47C62.8449 43.095 60.2099 43.095 58.5849 41.465ZM79.2049 20.84C75.9549 17.59 70.6749 17.59 67.4249 20.84C64.1699 24.095 64.1699 29.375 67.4249 32.625C70.6749 35.88 75.9549 35.88 79.2099 32.625C82.4599 29.375 82.4599 24.095 79.2049 20.84ZM71.2499 28.8C70.1099 27.66 70.1099 25.81 71.2499 24.675C72.3849 23.535 74.2399 23.535 75.3799 24.675C76.5149 25.81 76.5099 27.66 75.3799 28.8C74.2399 29.935 72.3899 29.935 71.2499 28.8Z" fill="#2789E5"/>
<path d="M99.7849 0.174999C98.0599 0.0549992 96.3749 0 94.7249 0C58.8899 0 38.4849 27.32 31.0649 49.305L50.7599 68.995C73.3799 60.9 99.9999 41.25 99.9999 5.8C99.9999 3.965 99.9299 2.095 99.7849 0.174999ZM52.7949 59.25L40.7849 47.24C45.8749 35.325 60.3349 9.965 91.6149 8.405C90.5649 32.465 74.7749 49.785 52.7949 59.25ZM58.5849 41.465C56.9549 39.84 56.9549 37.2 58.5849 35.575C60.2099 33.945 62.8499 33.945 64.4749 35.575C66.1049 37.205 66.1049 39.845 64.4749 41.47C62.8449 43.095 60.2099 43.095 58.5849 41.465ZM79.2049 20.84C75.9549 17.59 70.6749 17.59 67.4249 20.84C64.1699 24.095 64.1699 29.375 67.4249 32.625C70.6749 35.88 75.9549 35.88 79.2099 32.625C82.4599 29.375 82.4599 24.095 79.2049 20.84ZM71.2499 28.8C70.1099 27.66 70.1099 25.81 71.2499 24.675C72.3849 23.535 74.2399 23.535 75.3799 24.675C76.5149 25.81 76.5099 27.66 75.3799 28.8C74.2399 29.935 72.3899 29.935 71.2499 28.8Z" fill="#2789E5"/>
<path d="M52.795 59.25L40.785 47.24C45.875 35.325 60.335 9.965 91.615 8.405C90.565 32.465 74.775 49.785 52.795 59.25Z" fill="#2779C7"/>
<path d="M52.795 59.25L40.785 47.24C45.875 35.325 60.335 9.965 91.615 8.405C90.565 32.465 74.775 49.785 52.795 59.25Z" fill="#2779C7"/>
<path d="M67.425 20.84C70.675 17.59 75.955 17.59 79.205 20.84C82.46 24.095 82.46 29.375 79.21 32.625C75.955 35.88 70.675 35.88 67.425 32.625C64.17 29.375 64.17 24.095 67.425 20.84Z" fill="#EBB21E"/>
<path d="M71.25 24.675C70.11 25.81 70.11 27.66 71.25 28.8C72.39 29.935 74.24 29.935 75.38 28.8C76.51 27.66 76.515 25.81 75.38 24.675C74.24 23.535 72.385 23.535 71.25 24.675Z" fill="#EDF6FF"/>
<path d="M58.585 35.575C56.955 37.2 56.955 39.84 58.585 41.465C60.21 43.095 62.8451 43.095 64.4751 41.47C66.1051 39.845 66.1051 37.205 64.4751 35.575C62.8501 33.945 60.21 33.945 58.585 35.575Z" fill="#EDF6FF"/>
<path d="M75.59 65.66C73.31 67.215 71.05 68.62 68.81 69.87C68.03 73.58 66.05 77.545 63.18 80.92C63.175 78.52 62.505 76.1 61.335 73.675C59.27 74.61 57.31 75.415 55.44 76.125C58.195 83.245 55.39 88.505 51.625 93.435C57.025 93.03 62.695 90.385 67.155 85.915C71.98 81.105 75.355 74.155 75.59 65.66Z" fill="#2779C7"/>
<path d="M19.13 36.865C21.52 36.88 23.935 37.54 26.345 38.7C25.45 40.68 24.65 42.65 23.925 44.605C16.805 41.85 11.54 44.65 6.60999 48.415C7.01999 43.02 9.65999 37.35 14.125 32.885C18.945 28.07 25.9 24.685 34.395 24.455C32.85 26.685 31.38 28.955 30.07 31.26C26.395 32.06 22.475 34.03 19.13 36.865Z" fill="#2779C7"/>
<path d="M4.43 77.8L8.205 81.575L29.91 59.96L26.135 56.185L4.43 77.8Z" fill="#EBB21E"/>
<path d="M25.17 85.535L28.945 89.31L44.1 74.04L40.32 70.265L25.17 85.535Z" fill="#EBB21E"/>
<path d="M0 96.225L3.775 100L30.645 73.18L26.865 69.405L0 96.225Z" fill="#EBB21E"/>
<path d="M84 59.9376C87.8326 58.7743 90.8328 55.8018 92.0018 52C93.1709 55.8018 96.1711 58.7743 100 59.9376C96.1711 61.0972 93.1709 64.1982 92.0018 68C90.8328 64.2018 87.8326 61.0972 84 59.9376Z" fill="white"/>
<path d="M7 6C9.87823 5.12325 12.1232 2.8738 13.0044 0C13.8856 2.8738 16.1306 5.12325 19 6C16.1306 6.87675 13.8812 9.1262 13.0044 12C12.1232 9.13063 9.87823 6.88118 7 6Z" fill="white"/>
</svg>
